<?xml version="1.0"?><svg version="1.2" baseProfile="tiny-ps" viewBox="0 0 212 212" xmlns="http://www.w3.org/2000/svg" xmlns:xlink="http://www.w3.org/1999/xlink"><title>Eva Events</title><g><g fill="#fffdfe" transform="matrix(.1 0 0 -.1 0 212)"><path d="m222 2101-53-18-37-30c-20-16-52-49-69-72l-33-42-15-53-15-53 2-789 3-789 27-57 27-57 46-45 46-45 55-21 56-20 811 2 812 3 43 23c24 13 60 38 81 57l37 34 30 53 29 53 3 812 2 811-20 55-20 54-48 48-47 48-55 26-55 26-795 2-795 3-53-19z"/></g><g fill="#f8a7c4" transform="matrix(.1 0 0 -.1 0 212)"><path d="m222 2101-53-18-37-30c-20-16-52-49-69-72l-33-42-15-53-15-53 2-789 3-789 27-57 27-57 46-45 46-45 55-21 56-20 811 2 812 3 43 23c24 13 60 38 81 57l37 34 30 53 29 53 3 812 2 811-20 55-20 54-48 48-47 48-55 26-55 26-795 2-795 3-53-19zm1015-271c161-39 290-114 406-240l65-71 46-87 45-88 21-74 21-75 6-87 6-87-13-78c-32-198-130-374-277-496l-58-47-87-46-88-45-77-20-78-21h-115l-115-1-67 16c-203 49-375 170-487 342l-48 73-27 73c-15 41-34 107-42 147l-14 74v66c1 204 78 395 218 544l65 68 67 45c86 57 163 91 259 115l76 19h105l105 1 82-20zm-317-156-65-14-83-40-83-41-72-72-72-72-32-55c-18-30-38-76-44-102l-13-46 13-57 13-58 39-42 38-41 50-28c55-30 155-66 181-66h18l17 53c9 28 33 83 53 121l36 70 53 57c65 69 127 110 210 138l62 21h157l55-27 54-28 23-45 23-45-4-72-4-72-32-66-33-66-51-52-52-52-62-33-62-32-73-19c-40-10-106-22-146-26l-73-7 7-32c11-53 22-74 60-116l38-41 38-20c21-11 63-24 93-30l55-10 57 10c31 6 77 21 102 33l46 22 60 60 60 61 31 60c42 79 62 141 74 228l11 71-11 76c-6 41-20 103-31 138l-21 64-49 73-50 74-57 50-57 51-80 40-80 41-70 14-70 15-65-1c-36 0-94-7-130-15zm305-452c-63-22-105-51-149-105-35-43-96-156-96-178v-12l71 7 70 6 57 20 56 20 36 28c19 16 50 48 67 71l32 42 13 40 12 41-11 16-10 17-49 2-49 3-50-18zM452 872c5-20 26-67 45-104l35-68 59-64 59-64 56-37c64-43 155-82 213-91l40-6-44 46-45 46-26 51-26 51-13 66-14 65-13 8c-7 5-20 9-29 9-31 0-164 51-235 90l-72 40 10-38z"/></g><g fill="#f05a6d" transform="matrix(.1 0 0 -.1 0 212)"><path d="m222 2101-53-18-37-30c-20-16-52-49-69-72l-33-42-15-53-15-53 2-789 3-789 27-57 27-57 46-45 46-45 55-21 56-20 811 2 812 3 43 23c24 13 60 38 81 57l37 34 30 53 29 53 3 812 2 811-20 55-20 54-48 48-47 48-55 26-55 26-795 2-795 3-53-19zm1033-271 80-20 72-35 71-35 71-56 71-55 51-62 50-62 49-100 48-100 16-72 16-72V964l-11-60c-52-283-271-522-564-614l-70-22-97-5-97-6-78 13c-99 16-199 51-288 103l-70 40-85 87-85 86-42 74c-23 41-54 111-69 155l-27 80-5 126-5 126 17 77c52 230 178 402 388 529l58 35 83 27c46 15 108 31 138 35l54 9 90-4 90-4 80-21zm-359-166-58-14-72-37-71-37-80-80-80-81-32-64-33-64v-124l23-44 24-44 40-31c42-32 164-87 219-98l32-7 6 35c4 20 27 75 51 123l44 88 45 51c54 62 129 113 211 144l60 23 90 1h90l41-21c71-38 114-107 114-185 0-43-36-144-69-197-18-27-54-70-82-96l-50-47-72-33-72-33-77-16c-42-9-98-16-123-16h-45v-25c0-14 10-46 21-70l21-46 37-29 36-30 55-21 55-21 76 5 76 5 55 26 56 26 48 49c26 26 65 76 86 112l39 64 20 65 21 65 5 90 5 90-16 73-15 73-37 76-36 76-82 82-81 82-75 37c-41 20-100 43-130 51l-55 15-100-1-100-1-59-14zm334-443c-93-29-185-127-233-248l-17-43h18c44 1 174 30 215 48l45 20 42 42 42 42 19 41 19 42v65l-62-1c-35 0-74-4-88-8zM455 876c4-11 24-57 45-102l39-80 63-65 63-65 62-37c58-35 128-64 198-81l29-7-48 51-47 51-26 55c-14 30-30 81-36 113l-11 58-73 17-72 18-96 47-96 48 6-21z"/></g><g fill="#ef4475" transform="matrix(.1 0 0 -.1 0 212)"><path d="m222 2101-53-18-37-30c-20-16-52-49-69-72l-33-42-15-53-15-53 2-789 3-789 27-57 27-57 46-45 46-45 55-21 56-20h334l334 1v28l20 11 19 10-5 14-5 13 16 7 16 6-7-13-7-12 21 19c12 10 19 22 17 26-3 4 2 13 10 20s15 9 15 6c0-4 6-1 14 6s12 16 9 21c-2 4 0 6 4 5 5-2 28 16 52 39l42 43H961l-69 15c-93 19-159 45-243 95l-70 41-65 62C396 583 319 713 279 868l-19 75v222l15 65c80 345 366 594 719 626l72 6 86-11 86-11 72-25c142-48 273-139 367-255l53-65 39-80 40-80 22-80 22-80 1-102c1-57 4-103 7-103 11 0 49 37 49 49v11h15c8 0 14 3 14 8-1 4-1 11 0 16l1 8 17-13 17-14-7 18-6 17h9c6 0 10 8 10 18v17l10-15 10-15 1 15c1 8 1 18 0 23 0 4 2 6 6 5 5-2 19 6 33 16l25 18-19-6-19-6 13 15c7 8 15 13 19 10 10-5 41 32 34 39-4 3-1 6 5 6h12v649l-20 54-20 54-48 48-47 48-55 26-55 26-795 2-795 3-53-19zm680-435c-29-8-87-30-130-51l-77-38-80-81-80-81-34-67-33-67 4-70 4-70 30-43 30-43 54-33 55-33 79-25c43-13 79-23 80-22 1 2 12 36 26 76l24 73 47 72c57 87 105 134 182 181l59 35 68 15c81 19 135 20 195 5l44-11 40-34 39-34 18-45 17-45-6-55-6-55-26-57c-14-32-43-80-65-109l-38-51-58-38-58-39-83-28-83-29-85-6-85-6v-21c0-23 31-92 52-116 7-9 29-28 48-42l35-26 59-17 60-17 50 5c28 3 77 15 110 27l58 22 62 62 63 61 42 85 41 85 16 75 16 75-5 82-6 81-25 76-26 77-40 64-41 63-64 60-64 60-73 36c-40 20-100 43-133 51l-59 15-96-1-95-1-53-12zm310-453-42-15-55-50-55-50-40-80c-22-45-39-83-37-85 7-6 145 16 186 30 21 8 60 26 85 41l47 27 35 54 36 54 5 46 6 45-64-1-64-1-43-15zM456 876c42-135 143-267 263-344 48-31 174-82 201-82h11l-34 43c-20 23-47 66-62 96l-27 53-11 62-10 61-71 17-71 17-98 49-98 50 7-22z"/></g><g fill="#ee307d" transform="matrix(.1 0 0 -.1 0 212)"><path d="m222 2101-53-18-37-30c-20-16-52-49-69-72l-32-42-16-51-15-52V294l15-50c16-54 70-144 87-144 6 0 24 14 40 31l29 30 17-13 17-13-12 15-12 16 21 32c19 31 36 45 23 20-4-7 0-5 8 4l14 18 7-7 7-7 6 22 5 22h28l-2 13-3 12 13-3 13-2-5 8c-7 11 11 37 26 37l13 1-2 12-3 12 28 17c15 9 38 29 52 44s34 29 45 32l20 5-19 1-20 1 17 12 16 13-50 60-50 60-45 90-44 90-21 80-21 80v230l21 79 21 80 35 71c19 38 59 102 88 140l53 70 70 58 69 59 90 44 90 43 70 18 70 17h250l79-22c131-38 267-114 340-191 17-17 35-31 40-31h11l-14 9-14 9 22 7 21 6-5 10-6 9h8c4 0 19 16 32 35l24 35 15-12 16-13-7 17-6 17 15 12 16 13 8-13 8-13 7 11 7 12-14 16-13 17 18-7 18-7-6 9-5 9 30 29c17 15 36 28 43 28h12v40h27l26-1-10 21-11 20 18-15 19-15-7 12-8 12 26 17c14 9 24 19 21 21-3 3 6 15 19 27l24 22-35 28c-19 15-56 37-82 49l-47 22-795 2-795 3-53-19zm658-444-75-23-60-34-60-33-75-76-75-76-29-59-30-59-4-58-4-59 26-54 26-53 38-26c55-39 167-88 211-94l38-5 7 33c3 18 24 71 47 116l40 83 65 70 66 70 69 34 69 35 57 11 56 12 66-4 66-4 25 24c14 14 19 21 11 17l-14-8 7 11c4 7 17 12 28 12h21l-6 7-7 6 11 13 10 13-57 44c-71 56-165 103-247 122l-62 15-90-1h-90l-75-22zm263-486c-44-32-105-110-110-140l-3-19 30 26c17 15 30 30 30 35v8l-12-7-11-7 7 11c4 7 14 12 22 12s14 5 14 10v10l26-4 26-5-5 20-5 19 13 14c8 7 11 16 8 20-4 3 1 6 10 6 10 0 17 5 17 10 0 17-15 12-57-19zm22-31-6-10h32l-6 10c-3 6-8 10-10 10s-7-4-10-10zM461 867c16-55 57-130 104-190l46-58 16 13 16 13-8-24-7-24 14 14 15 13-5 20-5 19 16-6 17-6v38l17-6 16-6-6 10-6 9 17 15 18 15 14-4 15-4-15 11-15 11 15 9 14 10 16-12 15-11-15 16-15 15-62 17c-73 20-157 56-212 90l-39 25 9-32z"/></g><g fill="#ec1a87" transform="matrix(.1 0 0 -.1 0 212)"><path d="m222 2101-53-18-37-30c-20-16-52-49-69-72l-32-42-16-52-15-52v-504c0-277 4-501 7-497 3 3 13 0 22-6l16-12-12 14c-7 8-13 17-13 22v7l15-5 15-6v22h33l-19 21-19 22 23-12 22-12 20 11c11 6 20 13 20 16 0 2-9 0-21-6l-21-12-6 8-7 7 12 4c7 2 24 13 38 24l25 21-5 8-5 8 27 7 27 6-15 10-14 9h11c5 0 19 7 30 16l19 15-15-6c-8-4-3 3 12 16l27 24 11 82c46 347 305 623 648 689 41 8 90 14 110 14h37l-14 9-14 9 24 13c13 7 34 13 46 13 12 1 27 6 33 12l12 12-11 6-11 7v-36l-10 15-9 15 15 8 15 9 16-6 16-6-13 16-14 16 14 8c8 5 18 6 22 4 5-3 8-2 7 3-1 4-1 14 0 22l1 13 17-13 17-14-7 12-7 12 11 6 10 7-5 15-6 15 15-5 14-6 7 10c3 6 17 14 31 20l25 9-5 13-4 12-509 2-509 2-53-18zm1016-68c7-3 16-2 19 1 4 3-2 6-13 5l-19-1 13-5zm-173-142-5-10 11-6c5-4 13-4 16-1 4 3 1 6-6 6h-12l6 10c3 6 4 10 1 10s-7-4-11-9zm-265-270v-12l-10 6-10 6v-22l-9 5-9 6-61-41-61-40-49-57c-28-31-62-78-75-103l-25-46h28l-5 9-5 8h22l-6 10-6 10 13 1c7 1 18 0 23-1l10-2-7 7-7 7 14 14c16 16 29 19 20 4l-6-10 17 7 18 7-12 4-11 3 15 25c9 13 21 24 26 24h9l-6-10-6-10h22l-5 18-6 18 30 27c16 15 30 23 30 18s7-11 14-14l15-6-6 15-5 14 12 30 12 30 9-6 9-5v10c0 6 6 11 14 11 7 0 19 7 26 15l13 15-7 7-6 6v-12zm-131-133c0-2-2-11-4-21l-3-17 9 6c5 3 7 9 4 14l-5 8 17 5 18 5-17 1c-10 0-18 0-19-1zm-194-208-6-10h10c6 0 11 5 11 10 0 6-2 10-4 10-3 0-8-4-11-10zM6 798l5-8 10 5c13 9 11 12-6 12H1l5-9z"/></g></g></svg>